<mxfile host="app.diagrams.net" agent="Mozilla/5.0 (Windows NT 10.0; Win64; x64) AppleWebKit/537.36 (KHTML, like Gecko) Chrome/136.0.0.0 Safari/537.36" scale="1" border="0" version="27.0.8">
  <diagram name="Page-1" id="da4rT6dzK5Wj2tbhs94O">
    <mxGraphModel dx="1042" dy="570" grid="1" gridSize="10" guides="1" tooltips="1" connect="1" arrows="1" fold="1" page="1" pageScale="1" pageWidth="850" pageHeight="1100" math="0" shadow="0">
      <root>
        <mxCell id="0" />
        <mxCell id="1" parent="0" />
        <mxCell id="M-Ic2apQjUd1_tPQv2WQ-1" value="" style="rounded=1;whiteSpace=wrap;html=1;" parent="1" vertex="1">
          <mxGeometry x="480" y="70" width="290" height="480" as="geometry" />
        </mxCell>
        <mxCell id="M-Ic2apQjUd1_tPQv2WQ-2" value="UPRAVLJANJE REZERVACIJAMA&amp;nbsp;" style="text;html=1;align=center;verticalAlign=middle;resizable=0;points=[];autosize=1;strokeColor=none;fillColor=none;" parent="1" vertex="1">
          <mxGeometry x="520" y="80" width="210" height="30" as="geometry" />
        </mxCell>
        <mxCell id="M-Ic2apQjUd1_tPQv2WQ-3" value="P1.1 Kreiranje rezervacije" style="rounded=1;whiteSpace=wrap;html=1;fillColor=#dae8fc;strokeColor=#6c8ebf;" parent="1" vertex="1">
          <mxGeometry x="500" y="120" width="250" height="60" as="geometry" />
        </mxCell>
        <mxCell id="M-Ic2apQjUd1_tPQv2WQ-4" value="P1.2 Ažuriranje rezervacije" style="rounded=1;whiteSpace=wrap;html=1;fillColor=#fff2cc;strokeColor=#d6b656;" parent="1" vertex="1">
          <mxGeometry x="500" y="200" width="250" height="60" as="geometry" />
        </mxCell>
        <mxCell id="M-Ic2apQjUd1_tPQv2WQ-5" value="P1.3 Otkazivanje rezervacije&lt;span style=&quot;color: rgba(0, 0, 0, 0); font-family: monospace; font-size: 0px; text-align: start; text-wrap-mode: nowrap;&quot;&gt;%3CmxGraphModel%3E%3Croot%3E%3CmxCell%20id%3D%220%22%2F%3E%3CmxCell%20id%3D%221%22%20parent%3D%220%22%2F%3E%3CmxCell%20id%3D%222%22%20value%3D%22P1.2%20A%C5%BEuriranje%20rezervacije%22%20style%3D%22rounded%3D1%3BwhiteSpace%3Dwrap%3Bhtml%3D1%3BfillColor%3D%23fff2cc%3BstrokeColor%3D%23d6b656%3B%22%20vertex%3D%221%22%20parent%3D%221%22%3E%3CmxGeometry%20x%3D%22500%22%20y%3D%22200%22%20width%3D%22250%22%20height%3D%2260%22%20as%3D%22geometry%22%2F%3E%3C%2FmxCell%3E%3C%2Froot%3E%3C%2FmxGraphModel%3E&lt;/span&gt;" style="rounded=1;whiteSpace=wrap;html=1;fillColor=#f8cecc;strokeColor=#b85450;" parent="1" vertex="1">
          <mxGeometry x="500" y="280" width="250" height="60" as="geometry" />
        </mxCell>
        <mxCell id="M-Ic2apQjUd1_tPQv2WQ-6" value="P1.4 Pregled termina" style="rounded=1;whiteSpace=wrap;html=1;fillColor=#d5e8d4;strokeColor=#82b366;" parent="1" vertex="1">
          <mxGeometry x="500" y="360" width="250" height="60" as="geometry" />
        </mxCell>
        <mxCell id="M-Ic2apQjUd1_tPQv2WQ-7" value="P1.5 Slanje podsjetnika" style="rounded=1;whiteSpace=wrap;html=1;fillColor=#e1d5e7;strokeColor=#9673a6;" parent="1" vertex="1">
          <mxGeometry x="500" y="440" width="250" height="60" as="geometry" />
        </mxCell>
        <mxCell id="M-Ic2apQjUd1_tPQv2WQ-8" value="Klijenti" style="rounded=1;whiteSpace=wrap;html=1;fillColor=#ffe6cc;strokeColor=#d79b00;" parent="1" vertex="1">
          <mxGeometry x="30" y="280" width="120" height="60" as="geometry" />
        </mxCell>
        <mxCell id="M-Ic2apQjUd1_tPQv2WQ-9" value="" style="endArrow=classic;html=1;rounded=0;exitX=0.25;exitY=0;exitDx=0;exitDy=0;entryX=-0.012;entryY=0.13;entryDx=0;entryDy=0;entryPerimeter=0;" parent="1" source="M-Ic2apQjUd1_tPQv2WQ-8" target="M-Ic2apQjUd1_tPQv2WQ-1" edge="1">
          <mxGeometry width="50" height="50" relative="1" as="geometry">
            <mxPoint x="400" y="360" as="sourcePoint" />
            <mxPoint x="450" y="310" as="targetPoint" />
            <Array as="points">
              <mxPoint x="60" y="132" />
            </Array>
          </mxGeometry>
        </mxCell>
        <mxCell id="M-Ic2apQjUd1_tPQv2WQ-10" value="Zahtjev za novu rezervaciju, korisnički podaci" style="text;html=1;align=center;verticalAlign=middle;resizable=0;points=[];autosize=1;strokeColor=none;fillColor=none;" parent="1" vertex="1">
          <mxGeometry x="130" y="100" width="260" height="30" as="geometry" />
        </mxCell>
        <mxCell id="M-Ic2apQjUd1_tPQv2WQ-11" value="" style="endArrow=classic;html=1;rounded=0;entryX=0.333;entryY=0;entryDx=0;entryDy=0;entryPerimeter=0;" parent="1" target="M-Ic2apQjUd1_tPQv2WQ-8" edge="1">
          <mxGeometry width="50" height="50" relative="1" as="geometry">
            <mxPoint x="470" y="140" as="sourcePoint" />
            <mxPoint x="450" y="310" as="targetPoint" />
            <Array as="points">
              <mxPoint x="70" y="140" />
            </Array>
          </mxGeometry>
        </mxCell>
        <mxCell id="M-Ic2apQjUd1_tPQv2WQ-12" value="Potvrda rezervacije" style="text;html=1;align=center;verticalAlign=middle;resizable=0;points=[];autosize=1;strokeColor=none;fillColor=none;" parent="1" vertex="1">
          <mxGeometry x="210" y="135" width="130" height="30" as="geometry" />
        </mxCell>
        <mxCell id="M-Ic2apQjUd1_tPQv2WQ-13" value="" style="endArrow=classic;html=1;rounded=0;exitX=0.5;exitY=0;exitDx=0;exitDy=0;" parent="1" source="M-Ic2apQjUd1_tPQv2WQ-8" edge="1">
          <mxGeometry width="50" height="50" relative="1" as="geometry">
            <mxPoint x="400" y="360" as="sourcePoint" />
            <mxPoint x="470" y="220" as="targetPoint" />
            <Array as="points">
              <mxPoint x="90" y="220" />
            </Array>
          </mxGeometry>
        </mxCell>
        <mxCell id="M-Ic2apQjUd1_tPQv2WQ-14" value="Zahtjev za promjenu" style="text;html=1;align=center;verticalAlign=middle;resizable=0;points=[];autosize=1;strokeColor=none;fillColor=none;" parent="1" vertex="1">
          <mxGeometry x="215" y="188" width="130" height="30" as="geometry" />
        </mxCell>
        <mxCell id="M-Ic2apQjUd1_tPQv2WQ-15" value="" style="endArrow=classic;html=1;rounded=0;entryX=0.583;entryY=0;entryDx=0;entryDy=0;entryPerimeter=0;" parent="1" target="M-Ic2apQjUd1_tPQv2WQ-8" edge="1">
          <mxGeometry width="50" height="50" relative="1" as="geometry">
            <mxPoint x="470" y="230" as="sourcePoint" />
            <mxPoint x="450" y="310" as="targetPoint" />
            <Array as="points">
              <mxPoint x="100" y="230" />
            </Array>
          </mxGeometry>
        </mxCell>
        <mxCell id="M-Ic2apQjUd1_tPQv2WQ-16" value="Obavijest o promjeni" style="text;html=1;align=center;verticalAlign=middle;resizable=0;points=[];autosize=1;strokeColor=none;fillColor=none;" parent="1" vertex="1">
          <mxGeometry x="195" y="230" width="130" height="30" as="geometry" />
        </mxCell>
        <mxCell id="M-Ic2apQjUd1_tPQv2WQ-17" value="" style="endArrow=classic;html=1;rounded=0;" parent="1" edge="1">
          <mxGeometry width="50" height="50" relative="1" as="geometry">
            <mxPoint x="160" y="300" as="sourcePoint" />
            <mxPoint x="470" y="300" as="targetPoint" />
          </mxGeometry>
        </mxCell>
        <mxCell id="M-Ic2apQjUd1_tPQv2WQ-18" value="" style="endArrow=classic;html=1;rounded=0;" parent="1" edge="1">
          <mxGeometry width="50" height="50" relative="1" as="geometry">
            <mxPoint x="460" y="310" as="sourcePoint" />
            <mxPoint x="160" y="310" as="targetPoint" />
          </mxGeometry>
        </mxCell>
        <mxCell id="M-Ic2apQjUd1_tPQv2WQ-19" value="Zahtjev za otkazivanje" style="text;html=1;align=center;verticalAlign=middle;resizable=0;points=[];autosize=1;strokeColor=none;fillColor=none;" parent="1" vertex="1">
          <mxGeometry x="240" y="270" width="140" height="30" as="geometry" />
        </mxCell>
        <mxCell id="M-Ic2apQjUd1_tPQv2WQ-20" value="Potvrda o otkazivanju" style="text;html=1;align=center;verticalAlign=middle;resizable=0;points=[];autosize=1;strokeColor=none;fillColor=none;" parent="1" vertex="1">
          <mxGeometry x="230" y="308" width="140" height="30" as="geometry" />
        </mxCell>
        <mxCell id="M-Ic2apQjUd1_tPQv2WQ-21" value="" style="endArrow=classic;html=1;rounded=0;exitX=0.593;exitY=1.043;exitDx=0;exitDy=0;exitPerimeter=0;" parent="1" source="M-Ic2apQjUd1_tPQv2WQ-8" edge="1">
          <mxGeometry width="50" height="50" relative="1" as="geometry">
            <mxPoint x="400" y="360" as="sourcePoint" />
            <mxPoint x="470" y="380" as="targetPoint" />
            <Array as="points">
              <mxPoint x="101" y="380" />
            </Array>
          </mxGeometry>
        </mxCell>
        <mxCell id="M-Ic2apQjUd1_tPQv2WQ-22" value="" style="endArrow=classic;html=1;rounded=0;entryX=0.5;entryY=1;entryDx=0;entryDy=0;" parent="1" target="M-Ic2apQjUd1_tPQv2WQ-8" edge="1">
          <mxGeometry width="50" height="50" relative="1" as="geometry">
            <mxPoint x="470" y="390" as="sourcePoint" />
            <mxPoint x="450" y="310" as="targetPoint" />
            <Array as="points">
              <mxPoint x="90" y="390" />
            </Array>
          </mxGeometry>
        </mxCell>
        <mxCell id="M-Ic2apQjUd1_tPQv2WQ-23" value="Zahtjev za pregled termina" style="text;html=1;align=center;verticalAlign=middle;resizable=0;points=[];autosize=1;strokeColor=none;fillColor=none;" parent="1" vertex="1">
          <mxGeometry x="215" y="348" width="170" height="30" as="geometry" />
        </mxCell>
        <mxCell id="M-Ic2apQjUd1_tPQv2WQ-24" value="Prikaz dostupnih termina" style="text;html=1;align=center;verticalAlign=middle;resizable=0;points=[];autosize=1;strokeColor=none;fillColor=none;" parent="1" vertex="1">
          <mxGeometry x="220" y="390" width="160" height="30" as="geometry" />
        </mxCell>
        <mxCell id="M-Ic2apQjUd1_tPQv2WQ-25" value="" style="endArrow=classic;html=1;rounded=0;exitX=0.32;exitY=1.017;exitDx=0;exitDy=0;exitPerimeter=0;" parent="1" source="M-Ic2apQjUd1_tPQv2WQ-8" edge="1">
          <mxGeometry width="50" height="50" relative="1" as="geometry">
            <mxPoint x="400" y="360" as="sourcePoint" />
            <mxPoint x="470" y="460" as="targetPoint" />
            <Array as="points">
              <mxPoint x="70" y="460" />
            </Array>
          </mxGeometry>
        </mxCell>
        <mxCell id="M-Ic2apQjUd1_tPQv2WQ-26" value="" style="endArrow=classic;html=1;rounded=0;entryX=0.25;entryY=1;entryDx=0;entryDy=0;" parent="1" target="M-Ic2apQjUd1_tPQv2WQ-8" edge="1">
          <mxGeometry width="50" height="50" relative="1" as="geometry">
            <mxPoint x="470" y="470" as="sourcePoint" />
            <mxPoint x="450" y="310" as="targetPoint" />
            <Array as="points">
              <mxPoint x="60" y="470" />
            </Array>
          </mxGeometry>
        </mxCell>
        <mxCell id="M-Ic2apQjUd1_tPQv2WQ-27" value="Zahtjev za podsjetnik na termin" style="text;html=1;align=center;verticalAlign=middle;resizable=0;points=[];autosize=1;strokeColor=none;fillColor=none;" parent="1" vertex="1">
          <mxGeometry x="175" y="428" width="190" height="30" as="geometry" />
        </mxCell>
        <mxCell id="M-Ic2apQjUd1_tPQv2WQ-29" value="Podsjetnik o terminu" style="text;html=1;align=center;verticalAlign=middle;resizable=0;points=[];autosize=1;strokeColor=none;fillColor=none;" parent="1" vertex="1">
          <mxGeometry x="215" y="470" width="130" height="30" as="geometry" />
        </mxCell>
      </root>
    </mxGraphModel>
  </diagram>
</mxfile>
